# xmcd
#
# Track frame offsets:
#	150
#	24424
#	39340
#	51906
#	63949
#	77207
#	90137
#	103168
#	115784
#
# Disc length: 1768 seconds
#
# Revision: 1
# Processed by: cddbd v1.4PL0 Copyright (c) Steve Scherf et al.
# Submitted via: audiograbber 1.81.03
#
DISCID=6406e609
DTITLE=Billy Peek - Can A White Boy Play The Blues?
DYEAR=1986
DGENRE=Blues
TTITLE0=Can A White Boy Play The Blues?
TTITLE1=Good Mornin' School Girl
TTITLE2=Good Lovin' Baby
TTITLE3=Prancin'
TTITLE4=Peek-A-Boo Inn
TTITLE5=Farther Up The Road
TTITLE6=Bobbie Lolli-Bop
TTITLE7=Bad One Legged Lover
TTITLE8=Rock'N Roll Guitar Man
EXTD=
EXTT0=
EXTT1=
EXTT2=
EXTT3=
EXTT4=
EXTT5=
EXTT6=
EXTT7=
EXTT8=
PLAYORDER=
